<svg xmlns="http://www.w3.org/2000/svg" viewBox="0 0 945.65 795.05"><defs><style>.cls-1{fill:#003595;}</style></defs><g id="Camada_2" data-name="Camada 2"><g id="Camada_1-2" data-name="Camada 1"><path class="cls-1" d="M370.37,792.4c-2.89-2.56-6.47-2.9-9.81-3.6a355.87,355.87,0,0,1-84.14-28.67c-58.25-28.69-102-67.6-135.94-113-55.24-73.9-79.41-154.19-82.26-238.53A408.12,408.12,0,0,1,76,275.73C95.76,210.42,129.64,150,185.58,97.59,233.3,52.88,291.33,19.47,366,5c1.36-.27,2.9-.79,2.3-2.49-1-1.6-3.28-1.17-5.07-1.34C329.1-2.13,297.47,5.94,266.51,15c-24.8,7.22-47.17,18.26-68.46,30.43a373.92,373.92,0,0,0-112,97.69C30.86,214.69,5.46,292.81.7,375.11A411.09,411.09,0,0,0,24.27,538.47C47,602.06,83.32,660.36,141.53,709.85c45.14,38.38,98.64,67.15,165.28,79.86C327.37,793.63,348.13,797.83,370.37,792.4Z"/><path class="cls-1" d="M370.37,792.4c-22.24,5.43-43,1.23-63.56-2.69C240.17,777,186.67,748.23,141.53,709.85,83.32,660.36,47,602.06,24.27,538.47A411.09,411.09,0,0,1,.7,375.11c4.76-82.3,30.16-160.42,85.36-232a373.92,373.92,0,0,1,112-97.69C219.34,33.22,241.71,22.18,266.51,15c31-9,62.59-17.09,96.76-13.79,1.79.17,4.06-.26,5.07,1.34.6,1.7-.94,2.22-2.3,2.49C291.33,19.47,233.3,52.88,185.58,97.59,129.64,150,95.76,210.42,76,275.73A408.12,408.12,0,0,0,58.22,408.55c2.85,84.34,27,164.63,82.26,238.53,34,45.45,77.69,84.36,135.94,113a355.87,355.87,0,0,0,84.14,28.67C363.9,789.5,367.48,789.84,370.37,792.4Z"/><path class="cls-1" d="M817.13,66.83C834,81,851.73,94.63,867.48,109.47c8.59,8.09,15.37,17.43,23.21,26.1,13.86,15.32,23.21,32.61,32.6,49.76.54,1,3.11,4.67.8,4.64-14.82,0-29.21-.06-43.6,0-6,0-7.18-3.45-9-6.55a387.09,387.09,0,0,0-34.26-48.69C801.74,91.91,757.84,55.34,699.91,29.45c-15.64-7-37.28-16.33-83.23-26.63C630.53-.5,642.22.47,654,1.82c11.44,1.32,47.31,9.48,54.1,11.55A368.07,368.07,0,0,1,813.4,64.91,30.41,30.41,0,0,0,817.13,66.83Z"/><path class="cls-1" d="M895,565.63a388.14,388.14,0,0,1-88.75,128C757.83,740,698.85,775,621.92,789.9c-1.86.36-4,.82-4.84,2.47,19.74,3.12,23.29,3.06,43.19-.14,89.43-14.34,154.45-55.82,208.77-109a225,225,0,0,0,28.38-34.62c11.64-17.08,23.38-34.08,33.1-51.87,5.59-10.24,10.57-20.64,15.13-31.15Z"/><path class="cls-1" d="M123.74,469.21a401,401,0,0,0,66.33,164.55C222.22,680.39,263.92,721,320.34,752.3c25,13.89,52.28,24.58,81.63,32.78-5.22,4.94-14.28,2.77-19.21,7.39,13.55,3.5,27,2.37,40.23.12a52.43,52.43,0,0,1,17.89,0c15.68,2.59,31.47,3.75,47.53-.36-6.53-4.48-16.39-2.69-22.78-7.48,24.63-10,27.53-10,52.38,1.18-4.35,4.19-13,1.74-17.37,6.54,10.58,2,20.87,3.36,31.31,1.08,12-2.63,24-1.83,35.9.26,12.47,2.2,24.49,1.14,37-1.41-3.2-3.11-7.43-3.11-11.22-3.93-3.53-.76-7.31-1.23-10.7-3.86a61.24,61.24,0,0,1,6-2.55c58.58-17.41,105.66-46.51,145.23-83.05,45.68-42.18,76.69-90.3,98.07-142.2.31-.76.58-1.52.89-2.28H782.36c-23.9,58.91-60.06,112.93-115.72,159.08C637.33,738,603.58,757.92,564.84,773c-8.39,3.27-15.53,4.52-23.82.19-5.77-3-12.34-5.13-18.09-7.46-.64-3.12,2-3.88,3.9-4.84,61.82-30.47,107-72.23,142.12-120.85a393.66,393.66,0,0,0,46.87-85.48H665.07c-23,57-57.85,109.38-110.46,154.69a311.14,311.14,0,0,1-42.5,31.29c-21.21,12.77-15.13,13.15-36.91-.43-37.16-23.18-67-51.25-92-82.34-44.35-55.32-70.37-115.56-82.82-179.43a411.2,411.2,0,0,1-5.61-123.19c10.3-95.59,47.05-183.89,127.39-259.68C441,77.73,462.48,62,486.06,47.91c4.89-2.92,8.73-4.26,14.54-.77,43.77,26.31,80,57.5,106.89,94.77,11.94,12.5,20.38,26.47,28.54,40.48,3.36,5.75,7.42,8.26,15.92,7.82,11.58-.59,23.25-.15,34.89-.21,6.55,0,5.95-2.2,3.27-5.68-5.33-6.93-6.71-8.46-9.57-12.83-32-48.81-73.28-92-130.84-125.34-8.79-5.09-18-9.78-28.54-15.5,9.22-5.23,18.66-8.37,27.94-11.73,5-1.82,8.8.61,12.73,2.06a355.52,355.52,0,0,1,79.83,41.55c47,32.64,82.6,71.6,108.7,115.49,5.77,9.71,12.51,11.81,26.09,12.2,14.37.41,19.92-.17,29.15-.17,3.92-.85.49-4.74-.51-6.4-31.49-52.51-73.7-98.9-133.91-134.9C660.47,42.34,649,36.63,638,30.6c-18-7.22-36.3-14-56.31-20.19,7.84-4.52,16.46-3.29,22.35-8a98.38,98.38,0,0,0-38.56-1,101.82,101.82,0,0,1-33,0c-10.34-1.64-21-1.87-32.85,1.67,6.88,3.37,14.44,2,18.76,6.29-17.71,8.05-35,12.49-52.53,0,6.06-3.63,15.34-2,21.09-7.13a121.63,121.63,0,0,0-44.65-.07,62.09,62.09,0,0,1-21,0c-12.17-2-24.48-2.73-37.52.25,2.44,3,5.65,2.81,8.34,3.47,3.3.82,6.54,1.81,10.87,3a61.46,61.46,0,0,1-6.18,2.55C341.81,26.83,296.57,52.78,258,85.81c-54.12,46.32-89.45,100.41-112.27,159.45C117.33,318.67,111.22,393.43,123.74,469.21ZM231,188.44C260.75,135.37,303,88.82,362.33,52c18.48-11.49,38.6-21,59.49-29.76,9.28-3.89,17.6-4.84,26.63-.05,4.08,2.17,8.73,3.72,12.6,5.33,1.14,3.13-1.45,4-3.48,5-65.7,31.36-112.88,75.34-148.82,126.81-38.9,55.71-60.71,115.32-69.61,177.92-11.49,80.76-1.14,159.68,34,236.47,26.09,57,64.77,108.42,121.63,151.23,20.19,15.2,42.64,28.29,68.81,40.65-8.47,5.2-16.54,7.39-24,10.43-5.6,2.28-9.76-.52-14.1-2.14A361,361,0,0,1,308.94,703C252,651.66,216,592.25,196,527.4,160.16,411.74,169.25,298.32,231,188.44Z"/></g></g></svg>